<?xml version="1.0" standalone="no"?>
<!DOCTYPE svg PUBLIC "-//W3C//DTD SVG 20010904//EN"
 "http://www.w3.org/TR/2001/REC-SVG-20010904/DTD/svg10.dtd">
<svg version="1.0" xmlns="http://www.w3.org/2000/svg"
 width="334.000000pt" height="334.000000pt" viewBox="0 0 334.000000 334.000000"
 preserveAspectRatio="xMidYMid meet">
<metadata>
Created by potrace 1.14, written by Peter Selinger 2001-2017
</metadata>
<g transform="translate(0.000000,334.000000) scale(0.100000,-0.100000)"
fill="#000000" stroke="none">
<path d="M0 1670 l0 -1670 1670 0 1670 0 0 1670 0 1670 -1670 0 -1670 0 0
-1670z m2672 1003 l338 -338 0 -337 0 -338 -325 0 c-190 0 -325 -4 -325 -9 0
-5 146 -152 325 -327 l325 -318 0 -338 0 -338 -337 0 -338 0 -332 332 -333
333 0 -333 0 -332 -337 0 -338 0 -332 332 -333 333 0 337 0 338 330 0 c182 0
330 4 330 8 0 4 -148 153 -330 331 l-330 324 0 334 0 333 337 0 338 0 332
-332 333 -333 0 331 c0 182 3 334 7 337 3 4 153 7 332 7 l326 0 337 -337z"/>
<path d="M1670 2002 l0 -332 -330 0 c-181 0 -330 -4 -330 -8 0 -9 647 -652
656 -652 2 0 4 149 4 330 l0 330 325 0 c179 0 325 3 325 8 0 4 -146 153 -325
332 l-325 325 0 -333z"/>
</g>
</svg>
